<svg viewBox="0 0 750 750" xmlns="http://www.w3.org/2000/svg">
  <path fill="#928466" d="M109 263H29v-62h227v62h-80v193H109V263zm137-62h127c16 0 30 2 42 7s23 11 32 19 16 18 21 28 7 23 7 35c0 10-1 18-4 26s-6 15-11 21-10 12-16 17l-20 13 53 89h-73l-45-76h-46v76h-67V201zm125 116c11 0 20-2 26-8s9-12 9-19-3-14-9-19-15-8-26-8h-58v54h58zm217 146c-18 0-34-3-48-8s-26-13-36-22-17-21-23-35-8-28-8-45V201h67v151c0 16 4 28 13 36s20 13 35 13 26-4 34-13 13-21 13-36V201h67v153c0 16-3 31-8 45s-13 24-23 34-22 17-36 22-30 8-48 8z"/>
</svg> 