<svg xmlns="http://www.w3.org/2000/svg" viewBox="0 0 1200 630" width="1200" height="630">
  <rect width="1200" height="630" fill="#000000"/>
  <g transform="translate(300,115) scale(0.8)">
    <path fill="#928466" d="M109 263H29v-62h227v62h-80v193H109V263zm137-62h127c16 0 30 2 42 7s23 11 32 19 16 18 21 28 7 23 7 35c0 10-1 18-4 26s-6 15-11 21-10 12-16 17l-20 13 53 89h-73l-45-76h-46v76h-67V201zm125 116c11 0 20-2 26-8s9-12 9-19-3-14-9-19-15-8-26-8h-58v54h58zm217 146c-18 0-34-3-48-8s-26-13-36-22-17-21-23-35-8-28-8-45V201h67v151c0 16 4 28 13 36s20 13 35 13 26-4 34-13 13-21 13-36V201h67v153c0 16-3 31-8 45s-13 24-23 34-22 17-36 22-30 8-48 8z"/>
    <path fill="#928466" d="M84 574c0 3 1 6 4 8s6 3 11 3 8-1 11-2 4-4 4-7c0-2-1-3-2-5s-4-2-9-4l-12-2c-7-2-12-4-15-7s-4-7-4-13c0-6 2-11 7-15s11-6 20-6 15 2 20 7 7 10 7 16h-14c0-4-2-6-4-8s-6-3-10-3c-4 0-7 1-9 2s-3 4-3 6c0 2 0 3 1 4s3 2 5 3l18 4c7 2 11 4 14 7s4 7 4 11c0 8-3 13-8 17s-12 6-19 6-17-2-22-6-7-10-7-17zm152 21h-15v-26l-24-43h17l14 30 14-31h16l-23 43zm140-69h14v69h-15l-28-49h-0v49h-14v-69h15l27 48h0zm124 69h-14v-57h-21v-12h56v12h-21zm152-69v69h-14v-31h-27v31h-14v-69h14v26h27v-26z"/>
  </g>
</svg> 